<?xml version="1.0" encoding="UTF-8"?>
<svg xmlns="http://www.w3.org/2000/svg" width="1200" height="680" viewBox="0 0 1200 680">
  <rect width="1200" height="680" fill="#f8fafc"/>
  <text x="600" y="48" text-anchor="middle" font-family="Noto Sans CJK SC, PingFang SC, sans-serif" font-size="26" fill="#0f172a" font-weight="700">Router 熵与专家专业化趋势关系</text>
  <line x1="120" y1="560" x2="1080" y2="560" stroke="#334155" stroke-width="2"/>
  <line x1="120" y1="560" x2="120" y2="100" stroke="#334155" stroke-width="2"/>
  <text x="600" y="610" text-anchor="middle" font-family="Noto Sans CJK SC, PingFang SC, sans-serif" font-size="16" fill="#475569">训练步数 →</text>
  <text x="40" y="330" transform="rotate(-90 40 330)" font-family="Noto Sans CJK SC, PingFang SC, sans-serif" font-size="16" fill="#475569">指标值</text>
  <!-- entropy curve high then mid -->
  <polyline points="140,160 300,200 500,280 700,320 900,340 1040,350" fill="none" stroke="#2563eb" stroke-width="4"/>
  <!-- specialization rising -->
  <polyline points="140,500 300,450 500,360 700,280 900,220 1040,180" fill="none" stroke="#059669" stroke-width="4"/>
  <rect x="780" y="120" width="280" height="90" rx="10" fill="#fff" stroke="#cbd5e1"/>
  <line x1="800" y1="150" x2="860" y2="150" stroke="#2563eb" stroke-width="4"/>
  <text x="870" y="156" font-family="Noto Sans CJK SC, PingFang SC, sans-serif" font-size="14" fill="#1e40af">Router 熵</text>
  <line x1="800" y1="185" x2="860" y2="185" stroke="#059669" stroke-width="4"/>
  <text x="870" y="191" font-family="Noto Sans CJK SC, PingFang SC, sans-serif" font-size="14" fill="#065f46">专业化指标</text>
  <text x="600" y="650" text-anchor="middle" font-family="Noto Sans CJK SC, PingFang SC, sans-serif" font-size="15" fill="#64748b">熵过高=无分化；熵过低=坍缩；专业化需落在可解释中间带</text>
</svg>