<?xml version="1.0" encoding="UTF-8"?>
<svg xmlns="http://www.w3.org/2000/svg" width="960" height="540" viewBox="0 0 960 540">
  <rect width="960" height="540" fill="#0B1220"/>
  <text x="40" y="50" fill="#E2E8F0" font-size="26" font-family="sans-serif">流式 AV Working Memory 流水线</text>
  <g font-family="sans-serif" font-size="16" fill="#F8FAFC">
    <rect x="40" y="100" width="160" height="80" rx="12" fill="#1D4ED8"/>
    <text x="60" y="145">AV 流输入</text>
    <rect x="240" y="100" width="160" height="80" rx="12" fill="#7C3AED"/>
    <text x="255" y="145">事件检测</text>
    <rect x="440" y="100" width="160" height="80" rx="12" fill="#0F766E"/>
    <text x="455" y="145">证据打包</text>
    <rect x="640" y="100" width="160" height="80" rx="12" fill="#B45309"/>
    <text x="655" y="145">记忆写入</text>
    <rect x="840" y="100" width="80" height="80" rx="12" fill="#BE123C"/>
    <text x="855" y="145">门控</text>
    <path d="M200 140 H240 M400 140 H440 M600 140 H640 M800 140 H840" stroke="#94A3B8" stroke-width="3"/>
    <rect x="120" y="260" width="720" height="200" rx="16" fill="#111827" stroke="#334155"/>
    <text x="150" y="310" fill="#93C5FD">Working Set：近场窗口 / 活跃对象 / 开放问题</text>
    <text x="150" y="350" fill="#6EE7B7">Episodic Store：可检索事件卡（t0-t1, modality, confidence）</text>
    <text x="150" y="390" fill="#FCD34D">Commit Ledger：被业务动作引用的证据哈希与策略结果</text>
    <text x="150" y="430" fill="#F9A8D4">Forget Policy：TTL / 冲突合并 / 低置信度降级</text>
  </g>
</svg>
