<svg xmlns="http://www.w3.org/2000/svg" viewBox="0 0 900 520" font-family="system-ui, sans-serif">
  <defs>
    <linearGradient id="bg" x1="0%" y1="0%" x2="100%" y2="100%">
      <stop offset="0%" style="stop-color:#f8fafc"/>
      <stop offset="100%" style="stop-color:#e2e8f0"/>
    </linearGradient>
    <filter id="shadow" x="-5%" y="-5%" width="110%" height="110%">
      <feDropShadow dx="0" dy="2" stdDeviation="4" flood-opacity="0.1"/>
    </filter>
  </defs>
  <rect width="900" height="520" fill="url(#bg)" rx="12"/>
  <text x="450" y="42" text-anchor="middle" font-size="20" font-weight="700" fill="#1e293b">2026 Vibe Coding 产品化浪潮：三大平台架构对比</text>
  <text x="450" y="65" text-anchor="middle" font-size="13" fill="#64748b">自然语言 → 全栈应用 · 重写软件开发工作流</text>

  <!-- Lovable -->
  <rect x="30" y="90" width="265" height="400" rx="10" fill="white" filter="url(#shadow)"/>
  <rect x="30" y="90" width="265" height="48" rx="10" fill="#6366f1"/>
  <rect x="30" y="128" width="265" height="10" fill="#6366f1"/>
  <text x="162" y="120" text-anchor="middle" font-size="16" font-weight="700" fill="white">💜 Lovable</text>
  <text x="162" y="160" text-anchor="middle" font-size="12" font-weight="600" fill="#6366f1">对话式全栈应用工厂</text>
  <text x="50" y="185" font-size="11" fill="#475569">▸ 核心理念：Chat to App</text>
  <text x="50" y="205" font-size="11" fill="#475569">▸ 多模型调度 + 模板化生成</text>
  <text x="50" y="225" font-size="11" fill="#475569">▸ 内建认证/数据库/部署</text>
  <text x="50" y="245" font-size="11" fill="#475569">▸ Supabase 后端即服务</text>
  <text x="50" y="265" font-size="11" fill="#475569">▸ 增量对话式迭代</text>
  <text x="50" y="295" font-size="11" font-weight="600" fill="#1e293b">目标用户</text>
  <text x="50" y="315" font-size="11" fill="#475569">创业者 / 产品经理 / 设计师</text>
  <text x="50" y="345" font-size="11" font-weight="600" fill="#1e293b">差异化优势</text>
  <text x="50" y="365" font-size="11" fill="#475569">门槛最低 · 全栈交付最快</text>
  <text x="50" y="385" font-size="11" fill="#475569">2个月达2000万美元ARR</text>
  <text x="50" y="415" font-size="11" font-weight="600" fill="#1e293b">技术取舍</text>
  <text x="50" y="435" font-size="11" fill="#475569">速度优先 · 高度定制受限</text>
  <text x="50" y="455" font-size="11" fill="#475569">适合80%常见应用场景</text>
  <rect x="50" y="470" width="80" height="22" rx="4" fill="#ede9fe" stroke="#6366f1" stroke-width="1"/>
  <text x="90" y="485" text-anchor="middle" font-size="10" fill="#6366f1">lovable.dev</text>

  <!-- Bolt.new -->
  <rect x="318" y="90" width="265" height="400" rx="10" fill="white" filter="url(#shadow)"/>
  <rect x="318" y="90" width="265" height="48" rx="10" fill="#f59e0b"/>
  <rect x="318" y="128" width="265" height="10" fill="#f59e0b"/>
  <text x="450" y="120" text-anchor="middle" font-size="16" font-weight="700" fill="white">⚡ Bolt.new</text>
  <text x="450" y="160" text-anchor="middle" font-size="12" font-weight="600" fill="#f59e0b">专业级 Vibe Coding 平台</text>
  <text x="338" y="185" font-size="11" fill="#475569">▸ 核心理念：品牌一致性</text>
  <text x="338" y="205" font-size="11" fill="#475569">▸ 企业级设计系统集成</text>
  <text x="338" y="225" font-size="11" fill="#475569">▸ Porsche/MUI/WaPo 模板</text>
  <text x="338" y="245" font-size="11" fill="#475569">▸ 生成-验证-修正闭环</text>
  <text x="338" y="265" font-size="11" fill="#475569">▸ 错误率降低98%</text>
  <text x="338" y="295" font-size="11" font-weight="600" fill="#1e293b">目标用户</text>
  <text x="338" y="315" font-size="11" fill="#475569">专业团队 / 代理商 / 营销</text>
  <text x="338" y="345" font-size="11" font-weight="600" fill="#1e293b">差异化优势</text>
  <text x="338" y="365" font-size="11" fill="#475569">设计系统集成 · 品牌一致</text>
  <text x="338" y="385" font-size="11" fill="#475569">1000x项目复杂度提升</text>
  <text x="338" y="415" font-size="11" font-weight="600" fill="#1e293b">技术取舍</text>
  <text x="338" y="435" font-size="11" fill="#475569">一致性优先 · 创意自由度受限</text>
  <text x="338" y="455" font-size="11" fill="#475569">适合企业级品牌场景</text>
  <rect x="338" y="470" width="70" height="22" rx="4" fill="#fef3c7" stroke="#f59e0b" stroke-width="1"/>
  <text x="373" y="485" text-anchor="middle" font-size="10" fill="#f59e0b">bolt.new</text>

  <!-- v0 -->
  <rect x="606" y="90" width="265" height="400" rx="10" fill="white" filter="url(#shadow)"/>
  <rect x="606" y="90" width="265" height="48" rx="10" fill="#0ea5e9"/>
  <rect x="606" y="128" width="265" height="10" fill="#0ea5e9"/>
  <text x="738" y="120" text-anchor="middle" font-size="16" font-weight="700" fill="white">🚀 v0 by Vercel</text>
  <text x="738" y="160" text-anchor="middle" font-size="12" font-weight="600" fill="#0ea5e9">Agentic 全栈构建 + 部署</text>
  <text x="626" y="185" font-size="11" fill="#475569">▸ 核心理念：Agentic by Default</text>
  <text x="626" y="205" font-size="11" fill="#475569">▸ 自主规划任务拆解执行</text>
  <text x="626" y="225" font-size="11" fill="#475569">▸ Vercel 一键生产级部署</text>
  <text x="626" y="245" font-size="11" fill="#475569">▸ GitHub 代码同步</text>
  <text x="626" y="265" font-size="11" fill="#475569">▸ iOS 移动端 + Design Mode</text>
  <text x="626" y="295" font-size="11" font-weight="600" fill="#1e293b">目标用户</text>
  <text x="626" y="315" font-size="11" fill="#475569">开发者 + 非技术用户混合</text>
  <text x="626" y="345" font-size="11" font-weight="600" fill="#1e293b">差异化优势</text>
  <text x="626" y="365" font-size="11" fill="#475569">Agentic规划 · Vercel生态</text>
  <text x="626" y="385" font-size="11" fill="#475569">移动端构建入口</text>
  <text x="626" y="415" font-size="11" font-weight="600" fill="#1e293b">技术取舍</text>
  <text x="626" y="435" font-size="11" fill="#475569">生态优先 · 独立性受限</text>
  <text x="626" y="455" font-size="11" fill="#475569">适合 Vercel 用户群体</text>
  <rect x="626" y="470" width="60" height="22" rx="4" fill="#e0f2fe" stroke="#0ea5e9" stroke-width="1"/>
  <text x="656" y="485" text-anchor="middle" font-size="10" fill="#0ea5e9">v0.dev</text>
</svg>
