<svg xmlns="http://www.w3.org/2000/svg" viewBox="0 0 900 600" font-family="'Noto Sans SC', 'Microsoft YaHei', sans-serif">
  <defs>
    <linearGradient id="bg" x1="0" y1="0" x2="0" y2="1">
      <stop offset="0%" stop-color="#0f172a"/>
      <stop offset="100%" stop-color="#1e293b"/>
    </linearGradient>
    <linearGradient id="g1" x1="0" y1="0" x2="0" y2="1">
      <stop offset="0%" stop-color="#7c3aed"/>
      <stop offset="100%" stop-color="#a78bfa"/>
    </linearGradient>
    <linearGradient id="g2" x1="0" y1="0" x2="0" y2="1">
      <stop offset="0%" stop-color="#2563eb"/>
      <stop offset="100%" stop-color="#60a5fa"/>
    </linearGradient>
    <linearGradient id="g3" x1="0" y1="0" x2="0" y2="1">
      <stop offset="0%" stop-color="#059669"/>
      <stop offset="100%" stop-color="#34d399"/>
    </linearGradient>
  </defs>
  <rect width="900" height="600" fill="url(#bg)" rx="12"/>
  <!-- Title -->
  <text x="450" y="40" text-anchor="middle" fill="#e2e8f0" font-size="20" font-weight="bold">2026 视频生成模型三大架构路线对比</text>
  <!-- Column headers -->
  <rect x="30" y="60" width="260" height="36" rx="8" fill="url(#g1)" opacity="0.85"/>
  <text x="160" y="84" text-anchor="middle" fill="#fff" font-size="14" font-weight="bold">Seedance 2.0 · 双分支联合</text>
  <rect x="320" y="60" width="260" height="36" rx="8" fill="url(#g2)" opacity="0.85"/>
  <text x="450" y="84" text-anchor="middle" fill="#fff" font-size="14" font-weight="bold">Kling 3.0 · 统一多模态</text>
  <rect x="610" y="60" width="260" height="36" rx="8" fill="url(#g3)" opacity="0.85"/>
  <text x="740" y="84" text-anchor="middle" fill="#fff" font-size="14" font-weight="bold">Wan 2.6/3.0 · 开源DiT</text>
  <!-- Seedance architecture -->
  <rect x="30" y="110" width="260" height="200" rx="10" fill="#1e1b4b" stroke="#7c3aed" stroke-width="1.5"/>
  <rect x="50" y="125" width="100" height="40" rx="6" fill="#7c3aed" opacity="0.7"/>
  <text x="100" y="150" text-anchor="middle" fill="#fff" font-size="11">视频分支</text>
  <rect x="170" y="125" width="100" height="40" rx="6" fill="#a78bfa" opacity="0.7"/>
  <text x="220" y="150" text-anchor="middle" fill="#fff" font-size="11">音频分支</text>
  <!-- Cross attention -->
  <line x1="100" y1="165" x2="100" y2="200" stroke="#c4b5fd" stroke-width="1.5" stroke-dasharray="4"/>
  <line x1="220" y1="165" x2="220" y2="200" stroke="#c4b5fd" stroke-width="1.5" stroke-dasharray="4"/>
  <rect x="70" y="200" width="180" height="30" rx="6" fill="#4c1d95" opacity="0.8"/>
  <text x="160" y="220" text-anchor="middle" fill="#ddd6fe" font-size="10">交叉注意力层 · 音画同步去噪</text>
  <rect x="50" y="245" width="220" height="25" rx="5" fill="#5b21b6" opacity="0.6"/>
  <text x="160" y="262" text-anchor="middle" fill="#ede9fe" font-size="10">唇形同步 · 环境音耦合 · 多镜头音频连续</text>
  <rect x="50" y="280" width="220" height="20" rx="5" fill="#6d28d9" opacity="0.4"/>
  <text x="160" y="294" text-anchor="middle" fill="#c4b5fd" font-size="9">输入：9图+3视频+3音频+文本</text>
  <!-- Kling architecture -->
  <rect x="320" y="110" width="260" height="200" rx="10" fill="#1e3a5f" stroke="#2563eb" stroke-width="1.5"/>
  <rect x="340" y="125" width="220" height="50" rx="8" fill="#1d4ed8" opacity="0.7"/>
  <text x="450" y="147" text-anchor="middle" fill="#fff" font-size="11" font-weight="bold">统一 DiT 模型</text>
  <text x="450" y="165" text-anchor="middle" fill="#bfdbfe" font-size="9">文本+图像+音频+视频 → 统一训练</text>
  <rect x="340" y="190" width="105" height="30" rx="5" fill="#2563eb" opacity="0.5"/>
  <text x="392" y="210" text-anchor="middle" fill="#dbeafe" font-size="9">文/图生视频</text>
  <rect x="455" y="190" width="105" height="30" rx="5" fill="#3b82f6" opacity="0.5"/>
  <text x="507" y="210" text-anchor="middle" fill="#dbeafe" font-size="9">视频编辑</text>
  <rect x="340" y="230" width="105" height="30" rx="5" fill="#60a5fa" opacity="0.4"/>
  <text x="392" y="250" text-anchor="middle" fill="#dbeafe" font-size="9">多角色对话</text>
  <rect x="455" y="230" width="105" height="30" rx="5" fill="#93c5fd" opacity="0.4"/>
  <text x="507" y="250" text-anchor="middle" fill="#dbeafe" font-size="9">多镜头分镜</text>
  <rect x="340" y="270" width="220" height="20" rx="5" fill="#1e40af" opacity="0.5"/>
  <text x="450" y="284" text-anchor="middle" fill="#bfdbfe" font-size="9">4K/60fps · 原生多语言音频 · MVL框架</text>
  <!-- Wan architecture -->
  <rect x="610" y="110" width="260" height="200" rx="10" fill="#064e3b" stroke="#059669" stroke-width="1.5"/>
  <rect x="630" y="125" width="220" height="40" rx="8" fill="#047857" opacity="0.7"/>
  <text x="740" y="147" text-anchor="middle" fill="#fff" font-size="11" font-weight="bold">开源 DiT 基座</text>
  <text x="740" y="160" text-anchor="middle" fill="#a7f3d0" font-size="9">Apache 2.0 · 社区驱动</text>
  <rect x="630" y="180" width="105" height="30" rx="5" fill="#059669" opacity="0.5"/>
  <text x="682" y="200" text-anchor="middle" fill="#d1fae5" font-size="9">模块化组件</text>
  <rect x="745" y="180" width="105" height="30" rx="5" fill="#10b981" opacity="0.5"/>
  <text x="797" y="200" text-anchor="middle" fill="#d1fae5" font-size="9">社区微调</text>
  <rect x="630" y="220" width="105" height="30" rx="5" fill="#34d399" opacity="0.4"/>
  <text x="682" y="240" text-anchor="middle" fill="#d1fae5" font-size="9">LoRA适配</text>
  <rect x="745" y="220" width="105" height="30" rx="5" fill="#6ee7b7" opacity="0.4"/>
  <text x="797" y="240" text-anchor="middle" fill="#d1fae5" font-size="9">私有化部署</text>
  <rect x="630" y="265" width="220" height="20" rx="5" fill="#065f46" opacity="0.5"/>
  <text x="740" y="279" text-anchor="middle" fill="#a7f3d0" font-size="9">1080p · 自部署免费 · 灵活定制</text>
  <!-- Bottom comparison table -->
  <rect x="30" y="330" width="840" height="250" rx="10" fill="#0f172a" stroke="#334155" stroke-width="1"/>
  <text x="450" y="355" text-anchor="middle" fill="#94a3b8" font-size="13" font-weight="bold">核心维度对比</text>
  <!-- Table headers -->
  <rect x="40" y="370" width="120" height="28" rx="4" fill="#1e293b"/>
  <text x="100" y="389" text-anchor="middle" fill="#94a3b8" font-size="10" font-weight="bold">维度</text>
  <rect x="170" y="370" width="220" height="28" rx="4" fill="#4c1d95" opacity="0.4"/>
  <text x="280" y="389" text-anchor="middle" fill="#c4b5fd" font-size="10">Seedance 2.0</text>
  <rect x="400" y="370" width="220" height="28" rx="4" fill="#1e3a5f" opacity="0.4"/>
  <text x="510" y="389" text-anchor="middle" fill="#93c5fd" font-size="10">Kling 3.0</text>
  <rect x="630" y="370" width="230" height="28" rx="4" fill="#064e3b" opacity="0.4"/>
  <text x="745" y="389" text-anchor="middle" fill="#6ee7b7" font-size="10">Wan 2.6/3.0</text>
  <!-- Table rows -->
  <text x="100" y="418" text-anchor="middle" fill="#cbd5e1" font-size="9">音视频策略</text>
  <text x="280" y="418" text-anchor="middle" fill="#e2e8f0" font-size="9">双分支联合生成</text>
  <text x="510" y="418" text-anchor="middle" fill="#e2e8f0" font-size="9">统一多模态原生</text>
  <text x="745" y="418" text-anchor="middle" fill="#e2e8f0" font-size="9">基础音频同步</text>
  <line x1="40" y1="425" x2="860" y2="425" stroke="#1e293b" stroke-width="0.5"/>
  <text x="100" y="445" text-anchor="middle" fill="#cbd5e1" font-size="9">最高规格</text>
  <text x="280" y="445" text-anchor="middle" fill="#e2e8f0" font-size="9">2K / 15秒</text>
  <text x="510" y="445" text-anchor="middle" fill="#e2e8f0" font-size="9">4K 60fps / 15秒</text>
  <text x="745" y="445" text-anchor="middle" fill="#e2e8f0" font-size="9">1080p / 10秒</text>
  <line x1="40" y1="452" x2="860" y2="452" stroke="#1e293b" stroke-width="0.5"/>
  <text x="100" y="472" text-anchor="middle" fill="#cbd5e1" font-size="9">开源策略</text>
  <text x="280" y="472" text-anchor="middle" fill="#e2e8f0" font-size="9">闭源 · 按秒计费</text>
  <text x="510" y="472" text-anchor="middle" fill="#e2e8f0" font-size="9">闭源 · 订阅制</text>
  <text x="745" y="472" text-anchor="middle" fill="#e2e8f0" font-size="9">Apache 2.0 · 免费</text>
  <line x1="40" y1="479" x2="860" y2="479" stroke="#1e293b" stroke-width="0.5"/>
  <text x="100" y="499" text-anchor="middle" fill="#cbd5e1" font-size="9">核心优势</text>
  <text x="280" y="499" text-anchor="middle" fill="#e2e8f0" font-size="9">唇形同步 · 音画耦合</text>
  <text x="510" y="499" text-anchor="middle" fill="#e2e8f0" font-size="9">任务统一 · 4K品质</text>
  <text x="745" y="499" text-anchor="middle" fill="#e2e8f0" font-size="9">社区灵活 · 可定制</text>
  <line x1="40" y1="506" x2="860" y2="506" stroke="#1e293b" stroke-width="0.5"/>
  <text x="100" y="526" text-anchor="middle" fill="#cbd5e1" font-size="9">适用场景</text>
  <text x="280" y="526" text-anchor="middle" fill="#e2e8f0" font-size="9">广告 · 短视频 · 配音</text>
  <text x="510" y="526" text-anchor="middle" fill="#e2e8f0" font-size="9">影视 · 专业制作</text>
  <text x="745" y="526" text-anchor="middle" fill="#e2e8f0" font-size="9">研究 · 私有化 · 定制</text>
  <line x1="40" y1="533" x2="860" y2="533" stroke="#1e293b" stroke-width="0.5"/>
  <text x="100" y="553" text-anchor="middle" fill="#cbd5e1" font-size="9">主要局限</text>
  <text x="280" y="553" text-anchor="middle" fill="#fca5a5" font-size="9">闭源 · 分辨率上限</text>
  <text x="510" y="553" text-anchor="middle" fill="#fca5a5" font-size="9">推理成本高 · 闭源</text>
  <text x="745" y="553" text-anchor="middle" fill="#fca5a5" font-size="9">绝对质量差距 · 音频弱</text>
  <text x="450" y="585" text-anchor="middle" fill="#475569" font-size="9">数据来源：arXiv、官方技术页面、GitHub · 制图：AI Hotspot · 2026-05-24</text>
</svg>