<svg xmlns="http://www.w3.org/2000/svg" width="1200" height="680" viewBox="0 0 1200 680">
<defs><linearGradient id="bg" x1="0" y1="0" x2="1" y2="1"><stop offset="0" stop-color="#f8fafc"/><stop offset="1" stop-color="#ecfeff"/></linearGradient><marker id="a" markerWidth="10" markerHeight="10" refX="8" refY="3" orient="auto"><path d="M0,0 L0,6 L9,3 z" fill="#0891b2"/></marker></defs>
<rect width="1200" height="680" rx="34" fill="url(#bg)"/><text x="70" y="90" font-size="36" font-weight="800" fill="#0f172a">VLM 视觉编码器路线分化示意图</text><text x="70" y="132" font-size="18" fill="#475569">用于补充文章结构图示，帮助读者快速理解关键技术链路与工程取舍。</text>
<g transform="translate(90,260)"><rect width="210" height="110" rx="22" fill="#fff" stroke="#cbd5e1" stroke-width="2"/><text x="105" y="48" text-anchor="middle" font-size="22" font-weight="700" fill="#0f172a">CLIP 路线</text><text x="105" y="78" text-anchor="middle" font-size="14" fill="#64748b">AI Hotspot</text></g><path d="M310 315 L350 315" stroke="#0891b2" stroke-width="4" marker-end="url(#a)"/><g transform="translate(350,260)"><rect width="210" height="110" rx="22" fill="#fff" stroke="#cbd5e1" stroke-width="2"/><text x="105" y="48" text-anchor="middle" font-size="22" font-weight="700" fill="#0f172a">SigLIP2</text><text x="105" y="78" text-anchor="middle" font-size="14" fill="#64748b">AI Hotspot</text></g><path d="M570 315 L610 315" stroke="#0891b2" stroke-width="4" marker-end="url(#a)"/><g transform="translate(610,260)"><rect width="210" height="110" rx="22" fill="#fff" stroke="#cbd5e1" stroke-width="2"/><text x="105" y="48" text-anchor="middle" font-size="22" font-weight="700" fill="#0f172a">DINOv3</text><text x="105" y="78" text-anchor="middle" font-size="14" fill="#64748b">AI Hotspot</text></g><path d="M830 315 L870 315" stroke="#0891b2" stroke-width="4" marker-end="url(#a)"/><g transform="translate(870,260)"><rect width="210" height="110" rx="22" fill="#fff" stroke="#cbd5e1" stroke-width="2"/><text x="105" y="48" text-anchor="middle" font-size="22" font-weight="700" fill="#0f172a">混合编码器</text><text x="105" y="78" text-anchor="middle" font-size="14" fill="#64748b">AI Hotspot</text></g>
<rect x="90" y="500" width="1020" height="82" rx="22" fill="#f0f9ff" stroke="#bae6fd"/><text x="120" y="535" font-size="22" font-weight="700" fill="#075985">阅读提示</text><text x="240" y="535" font-size="18" fill="#334155">从输入约束、模型结构、系统瓶颈和部署收益四个层面理解这类 AI 热点。</text>
</svg>