<svg xmlns="http://www.w3.org/2000/svg" width="1600" height="900" viewBox="0 0 1600 900">
  <rect width="1600" height="900" fill="#F7F8FC"/>
  <rect x="60" y="50" width="1480" height="120" rx="24" fill="#111827"/>
  <text x="100" y="118" font-size="44" font-weight="700" fill="#FFFFFF" font-family="PingFang SC, Microsoft YaHei, Noto Sans CJK SC, sans-serif">价签更便宜，账单却更贵</text>
  <text x="100" y="168" font-size="24" fill="#D1D5DB" font-family="PingFang SC, Microsoft YaHei, Noto Sans CJK SC, sans-serif">推理模型的真实成本，不只由 API 单价决定，还取决于看不见的思考 token 消耗</text>

  <rect x="90" y="210" width="440" height="570" rx="28" fill="#FFFFFF" stroke="#D1D5DB" stroke-width="2"/>
  <text x="130" y="265" font-size="32" font-weight="700" fill="#111827" font-family="PingFang SC, Microsoft YaHei, Noto Sans CJK SC, sans-serif">表面看到的：价签</text>
  <rect x="130" y="300" width="320" height="70" rx="16" fill="#D1FAE5"/>
  <text x="155" y="345" font-size="28" fill="#065F46" font-family="PingFang SC, Microsoft YaHei, Noto Sans CJK SC, sans-serif">输入单价低</text>
  <rect x="130" y="390" width="320" height="70" rx="16" fill="#DBEAFE"/>
  <text x="155" y="435" font-size="28" fill="#1E40AF" font-family="PingFang SC, Microsoft YaHei, Noto Sans CJK SC, sans-serif">输出单价低</text>
  <rect x="130" y="480" width="320" height="70" rx="16" fill="#F3F4F6"/>
  <text x="155" y="525" font-size="28" fill="#374151" font-family="PingFang SC, Microsoft YaHei, Noto Sans CJK SC, sans-serif">看上去像“更便宜模型”</text>
  <text x="130" y="620" font-size="26" fill="#6B7280" font-family="PingFang SC, Microsoft YaHei, Noto Sans CJK SC, sans-serif">多数采购、选型与媒体比较，往往只停在这一层。</text>

  <rect x="580" y="210" width="440" height="570" rx="28" fill="#FFFFFF" stroke="#D1D5DB" stroke-width="2"/>
  <text x="620" y="265" font-size="32" font-weight="700" fill="#111827" font-family="PingFang SC, Microsoft YaHei, Noto Sans CJK SC, sans-serif">真实发生的：成本形成链</text>
  <rect x="650" y="315" width="220" height="70" rx="14" fill="#E5E7EB"/>
  <text x="692" y="358" font-size="28" fill="#111827" font-family="PingFang SC, Microsoft YaHei, Noto Sans CJK SC, sans-serif">提示词 token</text>
  <rect x="650" y="405" width="220" height="70" rx="14" fill="#BFDBFE"/>
  <text x="692" y="448" font-size="28" fill="#1D4ED8" font-family="PingFang SC, Microsoft YaHei, Noto Sans CJK SC, sans-serif">可见输出 token</text>
  <rect x="620" y="495" width="280" height="90" rx="18" fill="#FECACA"/>
  <text x="655" y="548" font-size="30" font-weight="700" fill="#991B1B" font-family="PingFang SC, Microsoft YaHei, Noto Sans CJK SC, sans-serif">隐藏思考 token</text>
  <text x="635" y="612" font-size="24" fill="#6B7280" font-family="PingFang SC, Microsoft YaHei, Noto Sans CJK SC, sans-serif">真正拉开账单差异的，往往是这层不可见消耗。</text>
  <path d="M 930 350 C 980 350, 1010 350, 1060 350" stroke="#9CA3AF" stroke-width="6" fill="none" marker-end="url(#arrow)"/>
  <path d="M 930 530 C 980 530, 1010 530, 1060 530" stroke="#EF4444" stroke-width="6" fill="none" marker-end="url(#arrow)"/>

  <rect x="1070" y="210" width="440" height="570" rx="28" fill="#FFFFFF" stroke="#D1D5DB" stroke-width="2"/>
  <text x="1110" y="265" font-size="32" font-weight="700" fill="#111827" font-family="PingFang SC, Microsoft YaHei, Noto Sans CJK SC, sans-serif">论文揭示的“价签反转”</text>
  <text x="1110" y="335" font-size="58" font-weight="800" fill="#DC2626" font-family="PingFang SC, Microsoft YaHei, Noto Sans CJK SC, sans-serif">21.8%</text>
  <text x="1265" y="335" font-size="26" fill="#6B7280" font-family="PingFang SC, Microsoft YaHei, Noto Sans CJK SC, sans-serif">模型对比出现反转</text>
  <text x="1110" y="425" font-size="58" font-weight="800" fill="#7C3AED" font-family="PingFang SC, Microsoft YaHei, Noto Sans CJK SC, sans-serif">28×</text>
  <text x="1240" y="425" font-size="26" fill="#6B7280" font-family="PingFang SC, Microsoft YaHei, Noto Sans CJK SC, sans-serif">最极端反转幅度</text>
  <text x="1110" y="515" font-size="58" font-weight="800" fill="#2563EB" font-family="PingFang SC, Microsoft YaHei, Noto Sans CJK SC, sans-serif">9.7×</text>
  <text x="1260" y="515" font-size="26" fill="#6B7280" font-family="PingFang SC, Microsoft YaHei, Noto Sans CJK SC, sans-serif">同一问题多次运行成本波动</text>

  <rect x="1110" y="580" width="340" height="130" rx="18" fill="#FEF3C7"/>
  <text x="1138" y="625" font-size="26" font-weight="700" fill="#92400E" font-family="PingFang SC, Microsoft YaHei, Noto Sans CJK SC, sans-serif">例子</text>
  <text x="1138" y="665" font-size="24" fill="#92400E" font-family="PingFang SC, Microsoft YaHei, Noto Sans CJK SC, sans-serif">某些“更便宜”的推理模型，</text>
  <text x="1138" y="700" font-size="24" fill="#92400E" font-family="PingFang SC, Microsoft YaHei, Noto Sans CJK SC, sans-serif">会因为思考 token 太多而最终更贵。</text>

  <rect x="70" y="810" width="1460" height="50" rx="16" fill="#E5E7EB"/>
  <text x="100" y="843" font-size="22" fill="#374151" font-family="PingFang SC, Microsoft YaHei, Noto Sans CJK SC, sans-serif">结论：推理模型的采购与路由，不能再只看每百万 token 的标价，而要看真实工作负载下的总成本与波动。</text>

  <defs>
    <marker id="arrow" markerWidth="12" markerHeight="12" refX="10" refY="6" orient="auto">
      <path d="M0,0 L12,6 L0,12 z" fill="#9CA3AF"/>
    </marker>
  </defs>
</svg>