<svg xmlns="http://www.w3.org/2000/svg" width="1280" height="720" viewBox="0 0 1280 720">
  <defs><marker id="arrow" markerWidth="12" markerHeight="12" refX="10" refY="6" orient="auto"><path d="M2,2 L10,6 L2,10 Z" fill="#3B82F6"/></marker><linearGradient id="bg" x1="0" x2="1"><stop offset="0" stop-color="#F8FBFF"/><stop offset="1" stop-color="#F4F7FB"/></linearGradient></defs>
  <rect width="1280" height="720" fill="url(#bg)"/>
  <text x="54" y="72" font-size="42" font-weight="800" fill="#0F172A">单模型多模态感知循环</text>
  <text x="56" y="112" font-size="22" fill="#475569">Nemotron 3 Nano Omni 文章配图 1</text>
  <rect x="50" y="130" width="250" height="360" rx="24" fill="#E8F1FF" stroke="#A9B8D0" stroke-width="2"/><text x="72" y="184" font-size="30" font-weight="700" fill="#0F172A">输入层</text><text x="76" y="210" font-size="25" fill="#263238">• 屏幕/视频</text><text x="76" y="262" font-size="25" fill="#263238">• 音频/语音</text><text x="76" y="314" font-size="25" fill="#263238">• 图片/文档</text><text x="76" y="366" font-size="25" fill="#263238">• 文本指令</text><path d="M315 305 L365 305" stroke="#3B82F6" stroke-width="6" marker-end="url(#arrow)"/><rect x="350" y="130" width="250" height="360" rx="24" fill="#EAFBF2" stroke="#A9B8D0" stroke-width="2"/><text x="372" y="184" font-size="30" font-weight="700" fill="#0F172A">统一感知层</text><text x="376" y="210" font-size="25" fill="#263238">• 视觉编码器</text><text x="376" y="262" font-size="25" fill="#263238">• 音频编码器</text><text x="376" y="314" font-size="25" fill="#263238">• 视频采样</text><text x="376" y="366" font-size="25" fill="#263238">• OCR/图表</text><path d="M615 305 L665 305" stroke="#3B82F6" stroke-width="6" marker-end="url(#arrow)"/><rect x="650" y="130" width="250" height="360" rx="24" fill="#FFF4E5" stroke="#A9B8D0" stroke-width="2"/><text x="672" y="184" font-size="30" font-weight="700" fill="#0F172A">Hybrid MoE 核心</text><text x="676" y="210" font-size="25" fill="#263238">• Mamba2 + Transformer</text><text x="676" y="262" font-size="25" fill="#263238">• 约31B总参数</text><text x="676" y="314" font-size="25" fill="#263238">• 约3B激活参数</text><text x="676" y="366" font-size="25" fill="#263238">• 256K上下文</text><path d="M915 305 L965 305" stroke="#3B82F6" stroke-width="6" marker-end="url(#arrow)"/><rect x="950" y="130" width="250" height="360" rx="24" fill="#F3EAFF" stroke="#A9B8D0" stroke-width="2"/><text x="972" y="184" font-size="30" font-weight="700" fill="#0F172A">输出层</text><text x="976" y="210" font-size="25" fill="#263238">• 文本推理</text><text x="976" y="262" font-size="25" fill="#263238">• JSON证据</text><text x="976" y="314" font-size="25" fill="#263238">• 时间戳</text><text x="976" y="366" font-size="25" fill="#263238">• 工具调用</text>
  <rect x="58" y="575" width="1164" height="74" rx="22" fill="#0F172A" opacity="0.92"/>
  <text x="90" y="624" font-size="30" font-weight="700" fill="#FFFFFF">减少多模型串联，降低延迟，保留跨模态上下文</text>
</svg>