<svg xmlns="http://www.w3.org/2000/svg" width="1200" height="680" viewBox="0 0 1200 680"><rect width="1200" height="680" fill="#f7fafc"/><text x="70" y="80" font-size="34" font-family="Arial, sans-serif" font-weight="700" fill="#122033">商品数据工作流从人工工单转向 Agent 编排</text><g font-family="Arial, sans-serif" font-size="22"><rect x="80" y="150" width="210" height="110" rx="12" fill="#dbeafe" stroke="#2563eb"/><text x="120" y="196" fill="#123">供应商资料</text><text x="112" y="230" fill="#123">图片/规格/合规</text><rect x="370" y="150" width="210" height="110" rx="12" fill="#dcfce7" stroke="#16a34a"/><text x="405" y="196" fill="#123">数据建模 Agent</text><text x="410" y="230" fill="#123">字段与类目建议</text><rect x="660" y="150" width="210" height="110" rx="12" fill="#fef3c7" stroke="#d97706"/><text x="700" y="196" fill="#123">映射/补全 Agent</text><text x="710" y="230" fill="#123">渠道规则适配</text><rect x="950" y="150" width="170" height="110" rx="12" fill="#fee2e2" stroke="#dc2626"/><text x="982" y="196" fill="#123">质检 Agent</text><text x="990" y="230" fill="#123">异常回流</text><path d="M290 205 H365" stroke="#334155" stroke-width="4" marker-end="url(#a)"/><path d="M580 205 H655" stroke="#334155" stroke-width="4" marker-end="url(#a)"/><path d="M870 205 H945" stroke="#334155" stroke-width="4" marker-end="url(#a)"/><rect x="290" y="390" width="620" height="110" rx="16" fill="#ede9fe" stroke="#7c3aed"/><text x="385" y="437" fill="#123">人工确认与策略边界</text><text x="365" y="471" fill="#123">品牌语气、合规责任、例外审批</text><path d="M1035 260 C1035 355 890 445 915 445" fill="none" stroke="#64748b" stroke-width="4" marker-end="url(#a)"/><path d="M600 390 C575 330 500 300 475 263" fill="none" stroke="#64748b" stroke-width="4" marker-end="url(#a)"/><rect x="450" y="560" width="300" height="60" rx="12" fill="#0f172a"/><text x="497" y="599" fill="white">更快上架 + 更少错误</text></g><defs><marker id="a" markerWidth="10" markerHeight="10" refX="8" refY="3" orient="auto"><path d="M0,0 L0,6 L9,3 z" fill="#334155"/></marker></defs></svg>